<svg xmlns="http://www.w3.org/2000/svg" viewBox="0 0 146 30" fill="none">
<path d="M48.4093 15.2656C49.1971 20.0637 45.0185 22.7679 40.7871 23.0796C38.0938 28.602 28.6057 32.3312 20.3696 28.3145C16.8489 28.8457 14.9192 27.9677 13.4295 26.293C16.4397 22.4299 25.5515 15.4763 36.6834 19.065C42.6245 20.9812 44.1647 16.4794 42.6751 14.7915C37.0684 8.43939 24.4117 14.1572 23.954 14.6335C28.9269 7.04561 46.7128 4.91652 48.4093 15.2656ZM31.3628 6.54516C31.3936 6.53419 27.3207 5.1009 21.6238 7.55483C21.3945 7.46999 21.1697 7.37328 20.9505 7.2651C26.4295 3.63468 31.233 2.09384 35.3389 2.69306C32.8525 -0.162546 20.9043 -2.2609 14.0588 4.5807C5.59608 2.91914 -0.323 10.0724 0.0136616 16.6045C0.350323 23.1366 7.49503 27.2038 11.5658 26.102C11.6636 26.0888 11.7628 26.0888 11.8606 26.102C12.7628 21.7846 16.4463 11.7406 31.3628 6.54516ZM65.4426 12.511L66.2018 9.18347H53.457L53.1688 10.4719C52.8365 11.6111 53.7387 12.4188 54.7091 12.3925H60.6127L50.1476 21.6112L49.4413 24.7038H62.9408L63.7175 21.317H55.18L65.4426 12.511ZM73.945 15.1932C73.3465 15.0417 69.9952 14.5347 70.2043 13.3846C70.4397 12.0874 72.0284 11.9644 72.8008 11.9886C74.3917 12.0347 74.8933 12.7327 74.977 12.9785C75.197 13.637 75.7053 13.9684 76.449 13.9684H78.9619C79.2369 12.4166 79.3118 8.83667 73.4741 8.83667C71.5993 8.83667 69.1019 9.30639 67.4494 11.205C66.5692 12.2234 65.0399 14.752 66.6 16.6528C67.4164 17.612 69.5442 18.3627 71.8282 18.8082C73.3047 19.098 74.0858 19.6862 73.923 20.382C73.824 20.8495 73.2364 21.9031 71.0624 21.9009C70.0899 21.9009 67.9819 21.7473 68.3846 19.5677H64.4106C63.9441 21.5431 63.7725 24.9914 69.8324 24.9914C72.1692 24.9914 76.9265 24.695 78.1654 19.7389C79.0587 16.1787 75.0342 15.4741 73.945 15.1998V15.1932ZM87.9923 20.6805C87.6496 20.9964 87.2476 21.2416 86.8096 21.402C86.3716 21.5625 85.9061 21.6351 85.4399 21.6156C82.4385 21.6441 82.7774 18.6809 83.1867 16.8921C83.5959 15.1032 84.5619 12.2213 87.4158 12.2278C89.438 12.2278 89.6712 13.5338 89.7747 13.9179H93.8652C93.72 9.61148 90.4106 8.78838 88.0715 8.84545C81.6596 9.00349 79.8046 14.3503 79.2303 16.835C77.5558 24.0936 82.2097 25.0001 84.4365 25.0001C86.2628 25.0001 90.2609 24.5612 92.6088 19.9255H89.6889C88.8461 19.8947 88.4566 20.2679 87.9923 20.6783V20.6805ZM104.696 22.1687C103.516 23.557 101.877 24.4774 100.075 24.7631C96.5211 25.3491 91.6362 25.2021 92.8662 20.0989C93.2601 18.4702 93.8696 17.4035 95.0952 16.6001C97.1482 15.2546 99.8745 15.0637 100.759 14.9671C101.061 14.9342 103.296 14.7674 103.679 13.4482C104.053 12.1642 102.002 12.0588 101.428 12.0522C99.6677 12.0325 99.0714 12.7327 98.7875 13.1497H94.8708C96.4529 8.9969 100.812 8.83448 102 8.83448C103.32 8.83448 108.615 8.83448 107.605 13.2112C106.06 19.8969 105.994 20.5642 104.696 22.1687ZM102.935 16.9008C102.306 17.2455 100.735 17.5835 100.484 17.6559C99.6787 17.893 98.1384 17.9983 97.3903 18.6963C96.7499 19.2999 95.6189 21.7933 98.3056 21.846C99.9691 21.8768 102.046 20.9439 102.636 18.2354C102.759 17.623 102.944 16.9008 102.944 16.9008H102.935ZM113.013 4.64655H110.901L106.311 24.706H110.401L114.549 6.5715C114.729 6.00082 114.613 4.70142 113.013 4.64655ZM123.617 19.9233H126.541C125.621 21.7758 123.241 25.0001 118.364 24.9979C112.142 24.9979 112.525 19.4601 113.161 16.8328C114.921 9.53246 119.821 8.84326 122.004 8.84326C124.913 8.84326 129.47 10.0461 127.155 17.9983H117.033C116.787 19.0519 116.576 21.6441 119.366 21.6134C120.833 21.598 121.383 21.069 121.515 21.001C121.903 20.8078 122.255 19.9474 123.617 19.9233ZM117.643 15.3754H123.604C124.114 12.522 122.343 12.2256 121.344 12.2256C120.488 12.2256 118.45 12.5351 117.643 15.3754ZM132.385 10.8845C129.646 12.748 128.739 15.7463 128.425 17.184C128.174 18.3166 126.702 24.706 126.702 24.706H130.797C130.797 24.706 132.348 17.6822 132.621 16.7187C132.944 15.5927 133.998 12.5483 138.078 12.6734L139.024 9.19005C135.723 9.0847 133.545 10.0966 132.383 10.8845H132.385ZM139.528 6.16544L139.631 5.67817H141.832L141.726 6.16544H140.936L140.496 8.31208H139.902L140.353 6.16544H139.528ZM143.15 5.67817L143.352 7.58556L144.369 5.67817H145.179L144.62 8.31208H144.083L144.567 6.21592L143.449 8.31208H143.009L142.754 6.21592L142.36 8.31208H141.812L142.366 5.67817H143.15Z" fill="#2160E1"/>
</svg>
