<?xml version="1.0" encoding="UTF-8"?>
<svg version="1.1" xmlns="http://www.w3.org/2000/svg" width="1250" height="500">
<path d="M0 0 C412.5 0 825 0 1250 0 C1250 165 1250 330 1250 500 C837.5 500 425 500 0 500 C0 335 0 170 0 0 Z " fill="#FEFEFE" transform="translate(0,0)"/>
<path d="M0 0 C62.04 0 124.08 0 188 0 C188 51.81 188 103.62 188 157 C163.58 157 139.16 157 114 157 C114 125.98 114 94.96 114 63 C100.47 63 86.94 63 73 63 C73 94.02 73 125.04 73 157 C48.91 157 24.82 157 0 157 C0 105.19 0 53.38 0 0 Z " fill="#020202" transform="translate(79,174)"/>
<path d="M0 0 C3.31256841 2.06976457 6.15766631 4.32903362 9 7 C9.91458984 7.78117188 9.91458984 7.78117188 10.84765625 8.578125 C21.47693436 18.20287793 26.13497385 32.1099957 28 46 C28.89038144 65.05002148 26.67927093 84.12572675 13.796875 99.1171875 C2.27478594 111.190333 -11.22047135 116.78399247 -27.75 117.3125 C-42.25716669 117.17285882 -52.01577755 110.98422245 -62 101 C-62.33 117.17 -62.66 133.34 -63 150 C-74.22 150 -85.44 150 -97 150 C-97 99.18 -97 48.36 -97 -4 C-85.78 -4 -74.56 -4 -63 -4 C-62.505 2.93 -62.505 2.93 -62 10 C-61.05125 8.96875 -60.1025 7.9375 -59.125 6.875 C-42.99177299 -9.22563464 -19.58892678 -10.23403079 0 0 Z " fill="#010101" transform="translate(1098,216)"/>
<path d="M0 0 C12.97913764 8.93491359 21.13396947 21.64825708 24.70654297 36.97705078 C25.65504863 42.44564333 25.37216263 48.02678517 25.375 53.5625 C25.38724609 54.80837891 25.39949219 56.05425781 25.41210938 57.33789062 C25.42248666 63.85828655 25.17487145 69.53167401 23.1875 75.75 C22.85492187 76.81863281 22.52234375 77.88726562 22.1796875 78.98828125 C16.70413923 94.05561162 7.78529264 104.66568819 -6.75 111.4609375 C-18.77774556 116.52363652 -31.64864403 117.78244996 -44.25390625 113.79296875 C-51.9374781 110.66088679 -57.49430935 106.16559199 -63.8125 100.75 C-64.1425 116.59 -64.4725 132.43 -64.8125 148.75 C-76.0325 148.75 -87.2525 148.75 -98.8125 148.75 C-98.8125 97.93 -98.8125 47.11 -98.8125 -5.25 C-87.5925 -5.25 -76.3725 -5.25 -64.8125 -5.25 C-64.3175 1.68 -64.3175 1.68 -63.8125 8.75 C-62.69875 7.55375 -61.585 6.3575 -60.4375 5.125 C-44.18158312 -11.10214535 -19.2042407 -11.46482676 0 0 Z " fill="#010101" transform="translate(961.8125,217.25)"/>
<path d="M0 0 C32 0 32 0 40.4375 8.25 C43.46484375 13.26953125 43.46484375 13.26953125 44.77685547 15.74853516 C46.3941011 18.72542921 48.39086959 21.29259764 50.5 23.9375 C53.07392481 27.3868447 55.62557058 30.85158343 58.16796875 34.32421875 C64.56522757 43.05456363 71.05114797 51.69092902 77.73120117 60.20703125 C83.79631183 67.96546422 89.62022436 75.89713493 95.41796875 83.85644531 C97.5378385 86.72873797 99.72147555 89.55112986 101.91601562 92.36669922 C103 94 103 94 103 96 C103.66 96 104.32 96 105 96 C105 64.65 105 33.3 105 1 C115.89 1 126.78 1 138 1 C138 52.48 138 103.96 138 157 C109 157 109 157 102.6875 151.3125 C101.32470703 149.3034668 101.32470703 149.3034668 100.4453125 147.44921875 C97.60336192 142.02982814 93.83175859 137.42374196 90.0625 132.625 C88.67724036 130.81145143 87.29568503 128.99506697 85.91796875 127.17578125 C85.25200684 126.29744629 84.58604492 125.41911133 83.89990234 124.51416016 C80.72884637 120.31786943 77.58413854 116.1019966 74.43774414 111.88720703 C70.10827138 106.10628968 65.66767095 100.41469205 61.22143555 94.72338867 C56.40829551 88.55162049 51.6900692 82.31339488 47.01171875 76.0390625 C43.01899159 70.68435448 39.00765724 65.34354298 35 60 C34.67 92.01 34.34 124.02 34 157 C22.78 157 11.56 157 0 157 C0 105.19 0 53.38 0 0 Z " fill="#020202" transform="translate(333,174)"/>
<path d="M0 0 C10.23 0 20.46 0 31 0 C36.61880206 11.23760413 36.61880206 11.23760413 38.5 16.05859375 C38.9125 17.10466797 39.325 18.15074219 39.75 19.22851562 C40.1625 20.28748047 40.575 21.34644531 41 22.4375 C43.72588436 29.40980109 46.55046609 36.28590342 49.68652344 43.08374023 C52.01109572 48.24489561 54.13292425 53.49099756 56.27401733 58.73019409 C57.46938569 61.6551921 58.66932943 64.57830692 59.8690033 67.50154114 C60.52389214 69.09730839 61.17856042 70.69316618 61.83302307 72.28910828 C65.68692941 81.68354804 69.57078236 91.06559302 73.45166016 100.44891357 C79.20073675 114.35169585 84.94417447 128.25666538 90.625 142.1875 C91.06803467 143.27281006 91.51106934 144.35812012 91.9675293 145.47631836 C92.36238525 146.44706299 92.75724121 147.41780762 93.1640625 148.41796875 C93.49873535 149.24063232 93.8334082 150.0632959 94.17822266 150.91088867 C94.83778384 152.58761625 95.43022493 154.29067479 96 156 C84.12 156 72.24 156 60 156 C58.35 152.04 56.7 148.08 55 144 C53.23217759 139.80925787 51.46301956 135.61912518 49.6875 131.43164062 C49.35234375 130.63822266 49.0171875 129.84480469 48.671875 129.02734375 C48.3737793 128.32343506 48.07568359 127.61952637 47.76855469 126.89428711 C47.11639138 125.28687445 46.54855195 123.64565586 46 122 C25.54 121.67 5.08 121.34 -16 121 C-16.99 124.3 -17.98 127.6 -19 131 C-19.79294229 133.16117152 -20.61583863 135.31180961 -21.48046875 137.4453125 C-21.87903076 138.43547363 -22.27759277 139.42563477 -22.68823242 140.44580078 C-23.43036987 142.26700439 -23.43036987 142.26700439 -24.1875 144.125 C-26.5696875 150.003125 -26.5696875 150.003125 -29 156 C-40.55 156 -52.1 156 -64 156 C-63.19823903 151.18943419 -62.34709117 148.01732351 -60.48046875 143.65234375 C-60.09912025 142.75224075 -60.09912025 142.75224075 -59.71006775 141.83395386 C-59.16171881 140.54170291 -58.61042175 139.2506997 -58.05645752 137.96084595 C-57.16904662 135.89453178 -56.28931194 133.82509885 -55.41162109 131.75463867 C-54.50099336 129.60650421 -53.58999038 127.45854131 -52.67669678 125.3115387 C-49.77904569 118.49776526 -46.94627562 111.65827055 -44.125 104.8125 C-40.95544877 97.1358176 -37.77964472 89.46191173 -34.58203125 81.796875 C-34.28716324 81.0900206 -33.99229523 80.3831662 -33.68849182 79.65489197 C-32.46435266 76.72088535 -31.24000261 73.78696708 -30.01504517 70.853302 C-25.97110881 61.1666884 -21.95346675 51.46964168 -17.9609375 41.76171875 C-17.0977445 39.66462933 -16.23454465 37.56754274 -15.37133789 35.47045898 C-13.69271794 31.39190008 -12.01807683 27.31173629 -10.34545898 23.23071289 C-9.57029152 21.34645859 -8.79498868 19.46225998 -8.01953125 17.578125 C-7.6721994 16.72751999 -7.32486755 15.87691498 -6.9670105 15.00053406 C-6.63476471 14.19501602 -6.30251892 13.38949799 -5.96020508 12.55957031 C-5.67679764 11.86873352 -5.3933902 11.17789673 -5.10139465 10.46612549 C-3.51874103 6.92241623 -1.73566516 3.47133033 0 0 Z " fill="#020202" transform="translate(759,175)"/>
<path d="M0 0 C0.99837891 -0.00773438 1.99675781 -0.01546875 3.02539062 -0.0234375 C17.58295861 0.0148467 31.10616916 4.91365984 41.5625 15.25 C57.04798507 32.739198 58.5625 50.45196905 58.5625 73.25 C31.5025 73.58 4.4425 73.91 -23.4375 74.25 C-18.55292626 86.59979198 -18.55292626 86.59979198 -8.3046875 93.48828125 C0.07825 96.90809885 10.65733014 96.47926933 19 93.125 C24.17712625 90.65329403 28.94345602 87.64429747 33.5625 84.25 C34.01238281 84.65089844 34.46226562 85.05179687 34.92578125 85.46484375 C40.67912573 90.54946282 46.598497 95.41521081 52.5625 100.25 C47.73760993 110.8740368 36.52590921 116.30941644 26.1796875 120.390625 C8.87566524 126.07254276 -10.0443798 124.70601613 -26.5 117.1875 C-41.78727524 109.13890145 -51.01395242 96.45340866 -56.4375 80.25 C-57.76318252 74.58041437 -57.62125661 68.85352001 -57.625 63.0625 C-57.64336914 61.59586914 -57.64336914 61.59586914 -57.66210938 60.09960938 C-57.68163548 50.25194597 -56.56037612 41.13363222 -52 32.3125 C-51.65364502 31.63646729 -51.30729004 30.96043457 -50.95043945 30.26391602 C-43.1552669 15.79546102 -30.81017089 6.63299845 -15.44921875 1.19140625 C-10.37124036 -0.2343081 -5.23509662 -0.04039946 0 0 Z " fill="#010101" transform="translate(545.4375,209.75)"/>
<path d="M0 0 C10.89 0 21.78 0 33 0 C33 10.23 33 20.46 33 31 C42.57 31 52.14 31 62 31 C62 40.57 62 50.14 62 60 C52.76 60 43.52 60 34 60 C34.02806047 67.88499224 34.07103884 75.76692209 34.15258789 83.65112305 C34.17856016 86.33316613 34.19228221 89.01485693 34.19555664 91.69702148 C34.2048332 95.55250061 34.24580056 99.40654002 34.29296875 103.26171875 C34.2890361 104.46084396 34.28510345 105.65996918 34.28105164 106.89543152 C34.18711027 113.62134222 34.18711027 113.62134222 37.32543945 119.26489258 C41.20093201 121.77909847 43.40222775 121.51086358 48 121 C52.29 120.01 56.58 119.02 61 118 C61 126.91 61 135.82 61 145 C48.1067517 151.44662415 34.75663088 154.66892003 20.4375 150.75 C11.95434734 147.72130417 6.23626568 142.39541876 2.1875 134.4375 C0.32457236 129.04481474 -0.1245838 124.03607482 -0.11352539 118.35205078 C-0.11344986 117.05115509 -0.11337433 115.7502594 -0.11329651 114.40994263 C-0.10819101 113.00506552 -0.10297504 111.60018881 -0.09765625 110.1953125 C-0.09578923 108.74657236 -0.09436667 107.29783158 -0.09336853 105.84909058 C-0.08956573 102.05153637 -0.07975474 98.25402092 -0.06866455 94.45648193 C-0.05840215 90.57515995 -0.05386059 86.69383166 -0.04882812 82.8125 C-0.0381303 75.20831369 -0.0205518 67.60416723 0 60 C-4.62 60 -9.24 60 -14 60 C-14 50.43 -14 40.86 -14 31 C-9.38 31 -4.76 31 0 31 C0 20.77 0 10.54 0 0 Z " fill="#030303" transform="translate(625,181)"/>
<path d="M0 0 C7.52678303 5.66831808 12.267521 12.39675291 14.21484375 21.66796875 C15.37866642 32.75772729 13.52285747 42.48475295 7.01953125 51.625 C1.93206821 57.38418435 -4.8451136 61.14304428 -12.46875 61.953125 C-21.03134566 62.37852784 -27.29853449 60.55178144 -33.8203125 54.90625 C-41.74034037 46.61628452 -44.20055378 36.27133483 -44.05078125 25.11328125 C-43.24872559 14.71014748 -38.42500749 7.5540554 -30.78515625 0.66796875 C-22.48788039 -6.1640435 -8.88040795 -5.27505098 0 0 Z " fill="#FCFCFC" transform="translate(939.78515625,242.33203125)"/>
<path d="M0 0 C9.07385808 4.89510765 13.80737289 12.85961867 17 22.4375 C17.84116856 34.58618035 16.86794897 44.54636415 9 54.4375 C3.03289062 60.64878776 -2.86798301 63.52635579 -11.5 63.8125 C-20.11452694 63.52732945 -26.7531929 60.37664851 -33 54.4375 C-40.48342825 45.11636912 -41.00952819 34.21336333 -40.28125 22.72705078 C-39.25705646 14.38947526 -34.46240815 8.02859667 -28.125 2.83984375 C-19.72066422 -2.7063999 -9.51735751 -3.80039061 0 0 Z " fill="#FCFCFC" transform="translate(1075,240.5625)"/>
<path d="M0 0 C4.95979287 2.85749384 8.8723289 6.99198669 10.6875 12.4375 C11.428915 19.28039581 10.77803621 24.7862669 6.6875 30.4375 C2.12517559 35.34981094 -2.51112811 37.49129446 -9.125 37.875 C-15.40705123 37.73477564 -19.49729133 35.23870265 -23.8828125 30.875 C-28.43496625 25.67253857 -28.72905433 21.1906988 -28.6484375 14.515625 C-28.03840426 8.9260181 -25.63649115 5.5879805 -21.5859375 1.83984375 C-15.13236718 -2.92729976 -7.28073655 -3.20185355 0 0 Z " fill="#ECECEC" transform="translate(1160.3125,211.5625)"/>
<path d="M0 0 C1.66633142 2.49949713 2.74947761 4.58740599 3.87939453 7.33203125 C4.239617 8.20303467 4.59983948 9.07403809 4.97097778 9.97143555 C5.35438324 10.90898682 5.7377887 11.84653809 6.1328125 12.8125 C6.72786087 14.26039917 6.72786087 14.26039917 7.33493042 15.73754883 C8.17208994 17.7777863 9.00750592 19.81873992 9.84130859 21.86035156 C11.12101089 24.99024345 12.4097979 28.11628896 13.69921875 31.2421875 C14.51097303 33.2237305 15.32218926 35.20549403 16.1328125 37.1875 C16.52026642 38.12505127 16.90772034 39.06260254 17.30691528 40.02856445 C17.83779251 41.33506958 17.83779251 41.33506958 18.37939453 42.66796875 C18.69313019 43.43391357 19.00686584 44.1998584 19.33010864 44.98901367 C20 47 20 47 20 50 C6.8 50 -6.4 50 -20 50 C-19.27756604 46.38783019 -18.60794769 43.72291641 -17.25 40.40917969 C-16.89292969 39.53187195 -16.53585937 38.65456421 -16.16796875 37.75067139 C-15.58982422 36.35041718 -15.58982422 36.35041718 -15 34.921875 C-14.60425781 33.95469543 -14.20851563 32.98751587 -13.80078125 31.99102783 C-12.96567424 29.95277892 -12.12838536 27.91542276 -11.2890625 25.87890625 C-9.99982525 22.74957585 -8.71814111 19.6172317 -7.4375 16.484375 C-6.62544315 14.50502646 -5.81295805 12.52585356 -5 10.546875 C-4.61457031 9.60527527 -4.22914063 8.66367554 -3.83203125 7.69354248 C-3.47496094 6.82884338 -3.11789062 5.96414429 -2.75 5.07324219 C-2.43546875 4.30888855 -2.1209375 3.54453491 -1.796875 2.75701904 C-1 1 -1 1 0 0 Z " fill="#F5F5F5" transform="translate(774,216)"/>
<path d="M0 0 C7.56666957 4.31166564 11.18198909 10.85663029 13.625 19 C13.625 20.32 13.625 21.64 13.625 23 C-2.875 23 -19.375 23 -36.375 23 C-35.31783437 14.54267495 -33.71404073 8.65898665 -27.08203125 3.06640625 C-18.69249801 -2.64066611 -9.54708407 -4.31719432 0 0 Z " fill="#F8F8F8" transform="translate(557.375,239)"/>
<path d="M0 0 C4.95979287 2.85749384 8.8723289 6.99198669 10.6875 12.4375 C11.428915 19.28039581 10.77803621 24.7862669 6.6875 30.4375 C2.12517559 35.34981094 -2.51112811 37.49129446 -9.125 37.875 C-15.40705123 37.73477564 -19.49729133 35.23870265 -23.8828125 30.875 C-28.43496625 25.67253857 -28.72905433 21.1906988 -28.6484375 14.515625 C-28.03840426 8.9260181 -25.63649115 5.5879805 -21.5859375 1.83984375 C-15.13236718 -2.92729976 -7.28073655 -3.20185355 0 0 Z M-22.3125 7.4375 C-25.45186839 12.24369916 -24.91101481 17.92525248 -24.3125 23.4375 C-21.89314724 28.45541684 -18.3133269 31.93708655 -13.3125 34.4375 C-7.83884134 34.86680656 -4.11964654 34.10813697 0.6875 31.4375 C4.90951313 27.35694608 6.84825844 24.03354344 7 18.1875 C6.94677779 13.09812631 6.18551724 10.31368126 2.6875 6.4375 C-1.9645023 2.23935158 -5.72373304 0.96914815 -11.890625 1.01953125 C-16.20184075 1.76356365 -19.33671941 4.32613228 -22.3125 7.4375 Z " fill="#151515" transform="translate(1160.3125,211.5625)"/>
<path d="M0 0 C12.36186739 -0.4944747 12.36186739 -0.4944747 15.39453125 1.85546875 C17 4 17 4 17.4375 6.5625 C16.92679891 9.40783466 16.34845369 10.34738444 14 12 C13.01 12 12.02 12 11 12 C11.433125 12.62648437 11.86625 13.25296875 12.3125 13.8984375 C12.869375 14.71570313 13.42625 15.53296875 14 16.375 C14.556875 17.18710938 15.11375 17.99921875 15.6875 18.8359375 C17 21 17 21 17 23 C14.8125 23 14.8125 23 12 22 C10.53420777 20.01712072 9.36883067 17.98840663 8.2109375 15.8125 C7.05186812 13.67664734 7.05186812 13.67664734 4 13 C4 16.3 4 19.6 4 23 C2.68 23 1.36 23 0 23 C0 15.41 0 7.82 0 0 Z " fill="#141414" transform="translate(1144,218)"/>
<path d="M0 0 C0 7.59 0 15.18 0 23 C1.65 23 3.3 23 5 23 C5 19.7 5 16.4 5 13 C9 14 9 14 10.34375 15.8125 C11.5 18 11.5 18 12.65625 20.1875 C13.87143069 22.18211566 13.87143069 22.18211566 16.15625 22.75 C16.7646875 22.8325 17.373125 22.915 18 23 C18 23.66 18 24.32 18 25 C13.11408198 27.3931027 9.55860161 28.70745839 4 28 C-0.93918408 25.38513784 -4.48734878 22.02530244 -7 17 C-8.04451435 6.89805406 -8.04451435 6.89805406 -5.953125 3.09765625 C-4.07613648 1.19306495 -2.7393988 0 0 0 Z " fill="#FBFBFB" transform="translate(1143,218)"/>
<path d="M0 0 C4 1 4 1 5.34375 2.8125 C6.11458333 4.27083333 6.88541667 5.72916667 7.65625 7.1875 C8.87143069 9.18211566 8.87143069 9.18211566 11.15625 9.75 C11.7646875 9.8325 12.373125 9.915 13 10 C13 10.66 13 11.32 13 12 C8.09573204 14.40209043 4.58228587 15.62025399 -1 15 C-3.9375 13.625 -3.9375 13.625 -6 12 C-6 11.34 -6 10.68 -6 10 C-4.02 10 -2.04 10 0 10 C0 6.7 0 3.4 0 0 Z " fill="#F4F4F4" transform="translate(1148,231)"/>
<path d="M0 0 C3.375 -0.125 3.375 -0.125 7 0 C7.66 0.66 8.32 1.32 9 2 C8.46428571 5.53571429 8.46428571 5.53571429 7 7 C4.66702567 7.04092937 2.33294775 7.04241723 0 7 C0 4.69 0 2.38 0 0 Z " fill="#F3F3F3" transform="translate(1148,221)"/>
<path d="M0 0 C1.77049689 -0.05410687 3.54146849 -0.09284119 5.3125 -0.125 C6.29863281 -0.14820313 7.28476563 -0.17140625 8.30078125 -0.1953125 C11 0 11 0 14 2 C11.0384304 3.4807848 8.16493705 3.35314037 4.875 3.5625 C3.59367187 3.64628906 2.31234375 3.73007813 0.9921875 3.81640625 C0.00476562 3.87699219 -0.98265625 3.93757812 -2 4 C-1.34 2.68 -0.68 1.36 0 0 Z " fill="#0A0A0A" transform="translate(1145,210)"/>
</svg>
